<svg width="349" height="335" viewBox="0 0 349 335" fill="none" xmlns="http://www.w3.org/2000/svg">
<path d="M108.239 267.215L128.194 277.096L112.29 313.406L99.2318 307.558L119.612 278.075L105.151 272.574L108.239 267.215Z" fill="black"/>
<path d="M76.3191 251.507C79.4442 248.467 82.393 246.937 85.1654 246.919C87.8812 246.9 91.0242 248.725 94.5943 252.395C98.1645 256.065 100.122 259.741 100.468 263.423C98.8216 265.861 96.9664 268.085 94.9021 270.093C92.8378 272.101 90.6236 273.697 88.2594 274.881C85.8388 276.064 83.551 276.839 81.3961 277.205C76.9454 277.907 73.6504 277.876 71.5111 277.111C70.2384 272.992 69.7881 268.714 70.1604 264.279C70.5389 259.39 72.5918 255.133 76.3191 251.507ZM80.0111 257.625C77.2873 260.275 75.3508 263.275 74.2014 266.625C77.778 267.778 81.6095 267.873 85.6961 266.911C89.7827 265.949 93.1449 264.185 95.7826 261.619C95.0621 260.534 93.8651 259.132 92.1916 257.411C90.518 255.691 88.5016 254.221 86.1423 253C83.9471 254.243 81.9034 255.785 80.0111 257.625Z" fill="black"/>
<path d="M77.0479 230.058C77.3372 230.673 77.5318 231.134 77.6317 231.441C77.3777 233.063 76.6149 234.637 75.3432 236.163C74.0184 237.67 72.469 238.84 70.6952 239.674C68.3784 240.763 66.2868 240.686 64.4202 239.441C62.5365 238.161 60.4886 235.168 58.2765 230.462C57.4596 228.724 56.7355 226.855 56.104 224.853L54.9605 225.524C53.5806 226.349 52.7636 227.573 52.5096 229.195C52.2193 230.834 52.5252 232.613 53.4271 234.532C54.3289 236.45 55.8281 238.088 57.9246 239.445L51.1743 245.536C48.4438 243.018 46.1427 239.768 44.2708 235.786C42.399 231.804 41.8235 228.229 42.5444 225.062C43.2292 221.911 45.472 219.442 49.273 217.656C50.1418 217.247 50.8466 216.96 51.3874 216.794L67.0889 211.27L70.1046 216.416L62.614 220.931L62.8182 221.366C66.0031 221.371 68.8482 222.111 71.3534 223.586C73.8224 225.077 75.7206 227.234 77.0479 230.058ZM58.2825 223.564L59.5811 226.468C60.7042 228.857 61.7498 230.752 62.7179 232.153C63.9697 232.184 64.9938 232.012 65.7902 231.637C66.5866 231.263 67.2958 230.797 67.9177 230.239C68.5396 229.682 68.9176 229.217 69.0519 228.844C66.3221 224.824 62.7323 223.064 58.2825 223.564Z" fill="black"/>
<path d="M63.2348 190.312C63.2968 191.27 63.1888 192.079 62.9109 192.738C61.4896 194.313 59.3119 195.657 56.3775 196.768C53.4407 197.84 50.1361 198.495 46.4637 198.733C41.7137 199.04 38.1616 198.348 35.8074 196.657C33.4506 194.925 32.1237 191.765 31.8266 187.174C31.6431 184.34 32.0198 181.49 32.9566 178.623L20.1417 180.355L17.3364 167.669L60.814 168.703L61.7366 174.596L51.4885 176.041L51.5195 176.52C58.9034 179.128 62.8085 183.726 63.2348 190.312ZM35.2679 184.607C35.3635 186.083 35.7243 187.323 36.3503 188.324C39.2605 188.697 42.2523 188.784 45.3259 188.585C51.7125 188.172 55.9777 187.495 58.1214 186.554C57.6755 184.619 56.1653 182.653 53.5909 180.655C52.2412 179.62 50.3656 178.819 47.964 178.253C45.5599 177.647 42.841 177.442 39.8073 177.639C39.2086 177.678 38.2731 177.778 37.0009 177.941C35.6802 179.83 35.1025 182.052 35.2679 184.607Z" fill="black"/>
<path d="M64.6158 149.161L35.1033 144.637L36.4234 131.712L65.5903 143.276L64.6158 149.161ZM29.1271 141.158C27.7711 141.921 26.3576 142.111 24.8866 141.728C23.4157 141.345 22.2938 140.494 21.5208 139.177C20.7193 137.811 20.51 136.392 20.8931 134.922C21.2762 133.451 22.1458 132.334 23.5018 131.571C24.8292 130.759 26.2284 130.545 27.6994 130.928C29.1703 131.311 30.3065 132.186 31.1081 133.552C31.881 134.869 32.076 136.263 31.6929 137.734C31.3098 139.205 30.4545 140.346 29.1271 141.158Z" fill="black"/>
<path d="M56.013 90.2297C56.4176 89.5864 56.9131 89.0238 57.4996 88.5421C60.685 88.1356 65.0703 89.2398 70.6555 91.8547C76.2068 94.4484 81.5219 97.3424 86.6009 100.537L81.6129 110.158C73.8251 105.26 66.5505 101.086 59.7889 97.6371C58.6157 103.184 63.6723 110.546 74.9587 119.724L72.2534 125.039L45.4326 111.786L50.5924 99.8625L58.8287 106.602L59.1162 106.145C57.0222 102.938 55.6887 99.949 55.1156 97.1787C54.5426 94.4083 54.8417 92.092 56.013 90.2297Z" fill="black"/>
<path d="M92.7496 60.6372C91.5357 61.4838 90.6625 62.4343 90.1298 63.4886C91.2265 66.0399 92.6101 68.513 94.2806 70.908C95.951 73.303 97.5254 75.3505 99.0037 77.0505C100.459 78.7176 101.547 79.7877 102.267 80.2608C103.636 78.8672 104.565 76.6339 105.056 73.561C105.32 71.9131 105.108 69.9646 104.417 67.7155C103.736 65.4106 102.571 63.0771 100.924 60.7149C100.649 60.3212 100.113 59.6223 99.3151 58.6182C97.005 58.5226 94.8165 59.1955 92.7496 60.6372ZM118.893 90.4639C115.612 92.7522 111.432 93.9609 106.353 94.0899L106.014 90.6682C109.827 89.9111 112.684 88.869 114.587 87.5418C116.523 86.1917 117.579 84.6992 117.756 83.0643C117.965 81.4066 117.474 79.7247 116.285 78.0186C115.918 77.4937 113.045 74.1087 107.665 67.8635L107.272 68.1381C109.398 76.3603 107.541 82.5079 101.701 86.5811C100.913 87.1303 100.166 87.4567 99.4577 87.5604C97.3971 87.1931 95.1772 86.108 92.7979 84.3049C90.4286 82.4461 88.2256 80.0568 86.1891 77.1369C83.5575 73.3639 82.39 70.0817 82.6864 67.2903C82.9927 64.4431 85.0323 61.7038 88.8052 59.0723C91.5611 57.1501 94.3974 56.1473 97.314 56.0638L97.4012 53.8815L105.855 45.8641L121.646 75.7421C123.172 78.6284 123.718 81.3688 123.284 83.9634C122.85 86.558 121.387 88.7248 118.893 90.4639Z" fill="black"/>
<path d="M161.216 62.2607C160.537 62.2839 160.036 62.2809 159.715 62.2518C158.324 61.3787 157.179 60.057 156.278 58.2866C155.416 56.4749 154.951 54.5897 154.884 52.6308C154.797 50.0723 155.693 48.1807 157.573 46.9559C159.492 45.7298 163.05 45.0282 168.247 44.8511C170.166 44.7857 172.17 44.8575 174.258 45.0665L174.093 43.7513C173.879 42.1577 173.076 40.9243 171.686 40.0512C170.294 39.1381 168.538 38.7176 166.42 38.7898C164.301 38.862 162.205 39.5939 160.131 40.9853L157.196 32.3803C160.586 30.8639 164.48 30.0308 168.878 29.8809C173.275 29.731 176.787 30.6119 179.414 32.5236C182.039 34.3952 183.423 37.4298 183.566 41.6274C183.599 42.5868 183.585 43.3477 183.524 43.9101L182.409 60.5178L176.491 61.2598L175.295 52.5955L174.815 52.6119C173.554 55.5365 171.752 57.8592 169.41 59.58C167.066 61.2609 164.334 62.1544 161.216 62.2607ZM174.584 47.5768L171.404 47.6252C168.765 47.7151 166.611 47.9286 164.942 48.2657C164.42 49.4041 164.174 50.4131 164.204 51.2926C164.234 52.172 164.383 53.0075 164.65 53.7988C164.917 54.5902 165.195 55.121 165.485 55.3913C170.256 54.4682 173.289 51.8634 174.584 47.5768Z" fill="black"/>
<path d="M228.425 39.3369C229.144 39.5817 229.806 39.9337 230.41 40.3928C231.543 43.3977 231.483 47.9195 230.231 53.9581C228.993 59.9589 227.407 65.7994 225.474 71.4796L214.96 68.8531C217.923 60.1434 220.301 52.1004 222.092 44.7243C216.424 44.8663 210.432 51.4891 204.114 64.5927L198.317 63.1907L205.006 34.0311L217.799 36.2922L213.148 45.8643L213.659 46.0382C216.295 43.2591 218.894 41.2702 221.457 40.0717C224.019 38.8733 226.342 38.6283 228.425 39.3369Z" fill="black"/>
<path d="M238.109 81.0798L253.253 55.3478L264.767 61.3653L243.213 84.1664L238.109 81.0798ZM258.699 51.087C258.493 49.5448 258.841 48.1616 259.742 46.9376C260.643 45.7135 261.848 44.9867 263.358 44.7572C264.924 44.5192 266.319 44.8508 267.544 45.7519C268.768 46.653 269.483 47.8747 269.688 49.4169C269.95 50.9507 269.63 52.3296 268.729 53.5537C267.828 54.7778 266.595 55.5088 265.029 55.7468C263.519 55.9762 262.152 55.6404 260.927 54.7393C259.703 53.8382 258.96 52.6208 258.699 51.087Z" fill="black"/>
<path d="M296.226 95.6134C296.631 96.2567 296.923 96.947 297.104 97.6843C296.309 100.027 294.034 102.946 290.279 106.442L290.534 106.849C294.145 106.279 297.264 106.278 299.89 106.848C302.537 107.451 304.404 108.616 305.49 110.342C305.895 110.986 306.187 111.676 306.367 112.413C305.354 115.461 302.426 118.956 297.582 122.9C292.738 126.845 287.76 130.425 282.647 133.64L276.44 124.785C284.431 119.76 291.365 115.044 297.242 110.639C293.061 107.598 284.427 109.272 271.339 115.661L267.177 110.056C275.167 105.031 282.101 100.315 287.978 95.9102C286.411 94.7698 283.848 94.3022 280.291 94.5073C276.79 94.725 272.05 96.2414 266.071 99.0568L262.075 100.932L258.456 96.1908L282.019 77.7565L290.531 87.5714L282 91.5896L282.224 91.9451C289.451 91.0385 294.118 92.2613 296.226 95.6134Z" fill="black"/>
<path d="M284.252 149.913C284.163 149.239 284.118 148.741 284.116 148.418C284.85 146.95 286.054 145.681 287.728 144.613C289.448 143.579 291.279 142.934 293.222 142.677C295.76 142.342 297.73 143.05 299.131 144.802C300.538 146.593 301.582 150.066 302.262 155.222C302.514 157.125 302.637 159.126 302.631 161.225L303.924 160.933C305.489 160.565 306.639 159.647 307.373 158.178C308.147 156.704 308.395 154.916 308.117 152.814C307.84 150.713 306.908 148.697 305.322 146.768L313.602 143.012C315.44 146.239 316.647 150.034 317.223 154.396C317.799 158.758 317.263 162.339 315.615 165.139C314.007 167.934 311.121 169.606 306.957 170.156C306.006 170.281 305.247 170.341 304.681 170.335L288.044 170.837L286.731 165.019L295.238 162.988L295.176 162.512C292.142 161.541 289.656 159.973 287.716 157.808C285.815 155.638 284.661 153.007 284.252 149.913ZM300.164 161.793L299.808 158.632C299.462 156.015 299.04 153.892 298.543 152.263C297.359 151.854 296.331 151.708 295.459 151.823C294.586 151.938 293.769 152.167 293.008 152.51C292.246 152.852 291.745 153.181 291.504 153.495C292.885 158.154 295.772 160.92 300.164 161.793Z" fill="black"/>
<path d="M285.955 189.169L310.28 190.755L310.451 185.182L316.602 185.88L315.94 191.124L324.37 191.667L323.777 206.726L314.404 203.889L313.688 209.793L309.757 208.931L309.953 202.511L285.475 195.115L285.955 189.169Z" fill="black"/>
<path d="M278.753 216.159L307.137 225.422L303.733 237.96L276.835 221.806L278.753 216.159ZM312.468 229.826C313.93 229.294 315.356 229.336 316.745 229.954C318.134 230.571 319.103 231.592 319.651 233.018C320.22 234.496 320.196 235.93 319.578 237.319C318.961 238.708 317.922 239.668 316.46 240.201C315.018 240.785 313.602 240.769 312.213 240.152C310.824 239.535 309.845 238.487 309.277 237.009C308.728 235.583 308.763 234.176 309.38 232.787C309.997 231.398 311.026 230.411 312.468 229.826Z" fill="black"/>
<path d="M261.823 263.397C258.474 260.605 256.646 257.832 256.339 255.076C256.038 252.377 257.526 249.061 260.805 245.129C264.084 241.196 267.536 238.867 271.162 238.14C273.758 239.524 276.163 241.138 278.375 242.982C280.587 244.826 282.404 246.862 283.828 249.09C285.256 251.375 286.264 253.57 286.853 255.675C288.015 260.028 288.326 263.309 287.788 265.516C283.824 267.21 279.616 268.103 275.166 268.194C270.264 268.326 265.817 266.727 261.823 263.397ZM267.524 259.089C270.442 261.522 273.628 263.136 277.079 263.931C277.853 260.254 277.55 256.433 276.168 252.469C274.786 248.505 272.682 245.344 269.855 242.988C268.851 243.817 267.581 245.153 266.044 246.997C264.507 248.84 263.254 250.999 262.286 253.472C263.75 255.526 265.496 257.398 267.524 259.089Z" fill="black"/>
<path d="M239.917 303.251C239.258 303.63 238.557 303.895 237.813 304.047C234.808 302.915 231.449 299.887 227.737 294.962C224.045 290.072 220.702 285.027 217.709 279.827L226.62 273.659C231.21 281.632 235.685 288.725 240.046 294.938C243.679 290.585 242.656 281.712 236.977 268.32L241.855 264.888L259.355 289.153L249.215 297.275L245.09 287.465L244.622 287.734C244.972 291.548 244.752 294.814 243.962 297.53C243.172 300.246 241.823 302.153 239.917 303.251Z" fill="black"/>
</svg>
